<svg width="450" height="315" viewBox="0 0 450 315" fill="none" xmlns="http://www.w3.org/2000/svg">
<g clip-path="url(#clip0)">
<path d="M273.072 175.072H9.23826C6.78897 175.069 4.44078 173.902 2.70887 171.828C0.976955 169.754 0.00275728 166.942 0 164.008V11.064C0.00275728 8.13069 0.976955 5.31843 2.70887 3.24423C4.44078 1.17003 6.78897 0.00330221 9.23826 0H273.072C275.521 0.00330221 277.87 1.17003 279.601 3.24423C281.333 5.31843 282.308 8.13069 282.31 11.064V164.008C282.308 166.942 281.333 169.754 279.601 171.828C277.87 173.902 275.521 175.069 273.072 175.072ZM9.23826 1.30165C7.07712 1.30458 5.0052 2.33405 3.47704 4.16422C1.94889 5.99439 1.0893 8.4758 1.08685 11.064V164.008C1.0893 166.597 1.94889 169.078 3.47704 170.908C5.0052 172.738 7.07712 173.768 9.23826 173.771H273.072C275.233 173.768 277.305 172.738 278.833 170.908C280.361 169.078 281.221 166.597 281.223 164.008V11.064C281.221 8.4758 280.361 5.99439 278.833 4.16422C277.305 2.33405 275.233 1.30458 273.072 1.30165H9.23826Z" fill="#3F3D56"/>
<path d="M50.6745 38.0734C53.3757 38.0734 55.5654 35.4509 55.5654 32.216C55.5654 28.981 53.3757 26.3585 50.6745 26.3585C47.9734 26.3585 45.7837 28.981 45.7837 32.216C45.7837 35.4509 47.9734 38.0734 50.6745 38.0734Z" fill="white"/>
<path d="M50.6745 60.2015C53.3757 60.2015 55.5654 57.579 55.5654 54.344C55.5654 51.109 53.3757 48.4866 50.6745 48.4866C47.9734 48.4866 45.7837 51.109 45.7837 54.344C45.7837 57.579 47.9734 60.2015 50.6745 60.2015Z" fill="white"/>
<path d="M50.6745 82.3295C53.3757 82.3295 55.5654 79.707 55.5654 76.4721C55.5654 73.2371 53.3757 70.6146 50.6745 70.6146C47.9734 70.6146 45.7837 73.2371 45.7837 76.4721C45.7837 79.707 47.9734 82.3295 50.6745 82.3295Z" fill="white"/>
<path d="M50.6745 104.458C53.3757 104.458 55.5654 101.835 55.5654 98.6002C55.5654 95.3653 53.3757 92.7428 50.6745 92.7428C47.9734 92.7428 45.7837 95.3653 45.7837 98.6002C45.7837 101.835 47.9734 104.458 50.6745 104.458Z" fill="white"/>
<path d="M133.004 148.714C135.705 148.714 137.895 146.091 137.895 142.856C137.895 139.621 135.705 136.999 133.004 136.999C130.303 136.999 128.113 139.621 128.113 142.856C128.113 146.091 130.303 148.714 133.004 148.714Z" fill="white"/>
<path d="M97.681 148.714C100.382 148.714 102.572 146.091 102.572 142.856C102.572 139.621 100.382 136.999 97.681 136.999C94.9799 136.999 92.7902 139.621 92.7902 142.856C92.7902 146.091 94.9799 148.714 97.681 148.714Z" fill="white"/>
<path d="M205.823 148.714C208.524 148.714 210.714 146.091 210.714 142.856C210.714 139.621 208.524 136.999 205.823 136.999C203.122 136.999 200.932 139.621 200.932 142.856C200.932 146.091 203.122 148.714 205.823 148.714Z" fill="white"/>
<path d="M168.87 148.714C171.571 148.714 173.761 146.091 173.761 142.856C173.761 139.621 171.571 136.999 168.87 136.999C166.169 136.999 163.979 139.621 163.979 142.856C163.979 146.091 166.169 148.714 168.87 148.714Z" fill="white"/>
<path d="M235.983 32.8667H75.1288C74.9846 32.8667 74.8464 32.7981 74.7445 32.6761C74.6426 32.554 74.5853 32.3885 74.5853 32.2159C74.5853 32.0433 74.6426 31.8777 74.7445 31.7557C74.8464 31.6336 74.9846 31.5651 75.1288 31.5651H235.983C236.127 31.5651 236.266 31.6336 236.367 31.7557C236.469 31.8777 236.527 32.0433 236.527 32.2159C236.527 32.3885 236.469 32.554 236.367 32.6761C236.266 32.7981 236.127 32.8667 235.983 32.8667Z" fill="white"/>
<path d="M235.983 54.9949H75.1288C74.9846 54.9949 74.8464 54.9263 74.7445 54.8043C74.6426 54.6822 74.5853 54.5167 74.5853 54.3441C74.5853 54.1715 74.6426 54.0059 74.7445 53.8839C74.8464 53.7618 74.9846 53.6932 75.1288 53.6932H235.983C236.127 53.6932 236.266 53.7618 236.367 53.8839C236.469 54.0059 236.527 54.1715 236.527 54.3441C236.527 54.5167 236.469 54.6822 236.367 54.8043C236.266 54.9263 236.127 54.9949 235.983 54.9949Z" fill="white"/>
<path d="M235.983 77.1229H75.1288C74.9846 77.1229 74.8464 77.0544 74.7445 76.9323C74.6426 76.8103 74.5853 76.6447 74.5853 76.4721C74.5853 76.2995 74.6426 76.134 74.7445 76.0119C74.8464 75.8899 74.9846 75.8213 75.1288 75.8213H235.983C236.127 75.8213 236.266 75.8899 236.367 76.0119C236.469 76.134 236.527 76.2995 236.527 76.4721C236.527 76.6447 236.469 76.8103 236.367 76.9323C236.266 77.0544 236.127 77.1229 235.983 77.1229Z" fill="white"/>
<path d="M235.983 99.251H75.1288C74.9846 99.251 74.8464 99.1824 74.7445 99.0604C74.6426 98.9383 74.5853 98.7728 74.5853 98.6002C74.5853 98.4276 74.6426 98.262 74.7445 98.14C74.8464 98.0179 74.9846 97.9493 75.1288 97.9493H235.983C236.127 97.9493 236.266 98.0179 236.367 98.14C236.469 98.262 236.527 98.4276 236.527 98.6002C236.527 98.7728 236.469 98.9383 236.367 99.0604C236.266 99.1824 236.127 99.251 235.983 99.251Z" fill="white"/>
<path d="M105.561 121.379H89.8013C89.0809 121.378 88.3903 121.035 87.8809 120.425C87.3715 119.815 87.085 118.988 87.0842 118.125V100.553C87.085 99.69 87.3715 98.8628 87.8809 98.2528C88.3903 97.6427 89.0809 97.2996 89.8013 97.2986H105.561C106.281 97.2996 106.972 97.6427 107.481 98.2528C107.99 98.8628 108.277 99.69 108.278 100.553V118.125C108.277 118.988 107.99 119.815 107.481 120.425C106.972 121.035 106.281 121.378 105.561 121.379Z" fill="#2C3E50"/>
<path d="M140.883 121.379H125.124C124.404 121.378 123.713 121.035 123.204 120.425C122.694 119.815 122.408 118.988 122.407 118.125V78.4245C122.408 77.5618 122.694 76.7347 123.204 76.1246C123.713 75.5146 124.404 75.1714 125.124 75.1704H140.883C141.604 75.1714 142.294 75.5146 142.804 76.1246C143.313 76.7347 143.6 77.5618 143.601 78.4245V118.125C143.6 118.988 143.313 119.815 142.804 120.425C142.294 121.035 141.604 121.378 140.883 121.379Z" fill="#2C3E50"/>
<path d="M176.75 121.379H160.99C160.27 121.378 159.579 121.035 159.07 120.425C158.56 119.815 158.274 118.988 158.273 118.125V56.2965C158.274 55.4337 158.56 54.6066 159.07 53.9966C159.579 53.3865 160.27 53.0433 160.99 53.0424H176.75C177.47 53.0433 178.161 53.3865 178.67 53.9966C179.179 54.6066 179.466 55.4337 179.467 56.2965V118.125C179.466 118.988 179.179 119.815 178.67 120.425C178.161 121.035 177.47 121.378 176.75 121.379Z" fill="#2C3E50"/>
<path d="M213.703 121.379H197.943C197.223 121.378 196.532 121.035 196.023 120.425C195.513 119.815 195.227 118.988 195.226 118.125V34.8192C195.227 33.9564 195.513 33.1293 196.023 32.5193C196.532 31.9092 197.223 31.5661 197.943 31.5651H213.703C214.423 31.5661 215.114 31.9092 215.623 32.5193C216.132 33.1293 216.419 33.9564 216.42 34.8192V118.125C216.419 118.988 216.132 119.815 215.623 120.425C215.114 121.035 214.423 121.378 213.703 121.379Z" fill="#2C3E50"/>
<path d="M360.538 311.319C355.651 306.374 352.683 298.561 353.462 290.956C354.24 283.351 359.061 276.359 365.315 274.744C371.57 273.129 378.699 277.6 380.598 284.916C381.644 270.81 382.848 256.113 389.111 244.1C394.781 233.223 404.602 225.439 415.246 224.047C425.889 222.655 437.096 227.914 443.734 237.975C450.372 248.036 451.998 262.663 447.348 274.214C443.924 282.724 437.614 289.057 431.003 294.209C409.64 310.716 384.017 317.43 358.851 313.113L360.538 311.319Z" fill="#F2F2F2"/>
<path d="M433.209 228.205C424.426 236.772 416.369 246.354 409.154 256.812C397.863 273.122 388.726 291.408 382.061 311.034C381.574 312.466 383.515 313.09 383.997 311.674C394.901 279.777 412.309 251.664 434.628 229.905C435.63 228.928 434.203 227.236 433.209 228.205Z" fill="white"/>
<path d="M308.998 132.155C308.38 132.153 307.764 132.079 307.158 131.934H307.158C307.047 131.908 306.936 131.879 306.826 131.849L173.742 94.7391C172.297 94.3358 171.336 93.2467 171.509 92.2054C171.581 91.8988 171.723 91.6222 171.919 91.406C172.114 91.1898 172.356 91.0425 172.617 90.9803C173.259 90.7683 173.935 90.7502 174.585 90.9279L308.495 124.421C311.51 125.174 313.603 127.391 313.26 129.465C313.081 130.551 312.282 131.393 311.012 131.836C310.356 132.055 309.678 132.162 308.998 132.155Z" fill="#3F3D56"/>
<path d="M280.806 127.021C281.495 127.506 282.264 127.804 283.059 127.894C283.854 127.985 284.657 127.865 285.409 127.544C286.162 127.223 286.846 126.708 287.415 126.036C287.983 125.363 288.422 124.55 288.699 123.653L308.114 124.138L302.736 113.912L285.123 115.019C283.834 114.561 282.449 114.684 281.231 115.367C280.013 116.05 279.046 117.244 278.514 118.723C277.981 120.203 277.921 121.865 278.343 123.394C278.766 124.923 279.642 126.214 280.806 127.021V127.021Z" fill="#FFB8B8"/>
<path d="M289.239 123.307L289.138 116.18C289.131 115.444 289.353 114.732 289.762 114.183C290.171 113.634 290.737 113.289 291.348 113.215L326.237 109.183L355.305 97.7682C356.182 97.4237 357.108 97.2914 358.029 97.3792C358.949 97.467 359.846 97.7731 360.666 98.2796C361.487 98.7861 362.216 99.483 362.809 100.33C363.403 101.176 363.851 102.156 364.126 103.212C364.401 104.267 364.498 105.378 364.411 106.479C364.324 107.58 364.056 108.649 363.621 109.625C363.186 110.6 362.594 111.462 361.878 112.161C361.163 112.86 360.338 113.382 359.453 113.695L327.278 125.104L291.746 126.185C291.208 126.201 290.682 126.005 290.247 125.627C289.812 125.249 289.493 124.71 289.339 124.094C289.276 123.838 289.242 123.573 289.239 123.307Z" fill="#3F3D56"/>
<path d="M340.869 307.048L334.206 307.048L331.037 276.271L340.87 276.272L340.869 307.048Z" fill="#FFB8B8"/>
<path d="M342.568 314.783L321.086 314.782V314.456C321.086 313.141 321.302 311.839 321.723 310.624C322.143 309.409 322.759 308.305 323.535 307.375C324.311 306.445 325.233 305.708 326.248 305.205C327.262 304.701 328.349 304.442 329.447 304.442H329.448L342.568 304.443L342.568 314.783Z" fill="#2F2E41"/>
<path d="M360.432 307.048L353.77 307.048L350.601 276.271L360.433 276.272L360.432 307.048Z" fill="#FFB8B8"/>
<path d="M362.131 314.783L340.649 314.782V314.456C340.649 313.141 340.866 311.839 341.286 310.624C341.706 309.409 342.322 308.305 343.098 307.375C343.875 306.445 344.797 305.708 345.811 305.205C346.826 304.701 347.913 304.442 349.011 304.442H349.011L362.132 304.443L362.131 314.783Z" fill="#2F2E41"/>
<path d="M364.904 182.67L363.313 295.715C363.308 296.073 363.241 296.426 363.117 296.751C362.993 297.077 362.814 297.369 362.592 297.608C362.369 297.847 362.108 298.029 361.824 298.141C361.54 298.254 361.24 298.296 360.942 298.263L353.146 297.415C352.635 297.359 352.157 297.088 351.796 296.65C351.435 296.213 351.216 295.636 351.176 295.023L346.612 224.509C346.601 224.344 346.538 224.189 346.435 224.077C346.332 223.966 346.198 223.906 346.059 223.909C345.921 223.912 345.788 223.979 345.689 224.095C345.59 224.212 345.532 224.369 345.527 224.535L343.246 296.663C343.224 297.336 342.986 297.973 342.581 298.44C342.176 298.907 341.636 299.168 341.074 299.168H332.713C332.159 299.168 331.626 298.915 331.223 298.461C330.82 298.006 330.577 297.385 330.543 296.723L324.69 182.019L359.469 171.606L364.904 182.67Z" fill="#2F2E41"/>
<path d="M339.677 76.5225C347.048 76.5225 353.024 69.3658 353.024 60.5376C353.024 51.7093 347.048 44.5526 339.677 44.5526C332.306 44.5526 326.33 51.7093 326.33 60.5376C326.33 69.3658 332.306 76.5225 339.677 76.5225Z" fill="#FFB8B8"/>
<path d="M323.499 186.033C323.268 185.765 323.083 185.446 322.956 185.092C322.829 184.738 322.761 184.358 322.758 183.973L321.857 106.888C321.803 102.966 322.788 99.1253 324.671 95.9164C326.553 92.7076 329.237 90.2959 332.336 89.0279C333.586 82.2337 340.241 81.3826 344.121 81.4843C345.089 81.5093 346.039 81.8135 346.888 82.3713C347.737 82.929 348.462 83.7238 349 84.6882L351.781 89.6845L357.911 93.9879C360.748 95.971 362.986 98.9821 364.301 102.587C365.617 106.191 365.942 110.203 365.231 114.044L364.287 119.185C360.964 137.382 361.28 156.262 365.21 174.284L367.109 182.956C367.208 183.408 367.215 183.881 367.13 184.337C367.046 184.793 366.871 185.217 366.621 185.576C366.371 185.934 366.053 186.216 365.694 186.397C365.335 186.579 364.945 186.655 364.556 186.619L362.35 186.415C361.778 186.364 361.239 186.072 360.828 185.591C360.417 185.11 360.161 184.472 360.105 183.787L359.74 179.416C359.733 179.336 359.702 179.261 359.652 179.207C359.602 179.153 359.537 179.123 359.469 179.123C359.402 179.123 359.337 179.153 359.287 179.207C359.237 179.261 359.206 179.336 359.199 179.416L358.846 183.648C358.786 184.363 358.509 185.027 358.067 185.513C357.626 185.999 357.05 186.274 356.45 186.285L325.24 186.86C325.227 186.86 325.215 186.861 325.202 186.861C324.565 186.863 323.954 186.565 323.499 186.033Z" fill="#3F3D56"/>
<path d="M340.721 69.7517C340.776 72.0113 342.086 73.3186 343.694 74.5022C345.302 75.6858 347.182 76.199 349.024 76.694C349.271 76.8514 349.548 76.9297 349.828 76.9215C350.108 76.9132 350.382 76.8187 350.622 76.647C350.863 76.4754 351.063 76.2323 351.202 75.9413C351.341 75.6503 351.416 75.3213 351.418 74.9859L353.107 67.291C353.705 64.833 354.139 62.3223 354.407 59.7824C354.814 54.8953 353.847 49.6379 350.999 46.1044C348.151 42.5709 343.211 41.3156 339.798 44.0382C335.748 37.8425 317.233 51.5312 321.8 55.8395C322.613 56.606 323.855 55.6361 324.886 55.5421C325.917 55.4481 327.073 55.6654 327.728 56.6239C328.584 57.8762 328.211 59.7417 328.564 61.3039C328.71 61.8536 328.945 62.3633 329.256 62.8035C329.567 63.2437 329.948 63.6058 330.377 63.8689C330.805 64.132 331.273 64.2909 331.753 64.3363C332.234 64.3818 332.716 64.3131 333.174 64.134C334.027 63.6308 334.829 63.0132 335.565 62.293C336.356 61.662 337.356 61.1957 338.246 61.5937C339.42 62.1183 339.837 63.8393 339.943 65.3344C340.122 66.8255 340.382 68.3011 340.721 69.7517Z" fill="#2F2E41"/>
<path d="M439.595 315H232.549C232.405 315 232.267 314.931 232.165 314.809C232.063 314.687 232.006 314.522 232.006 314.349C232.006 314.177 232.063 314.011 232.165 313.889C232.267 313.767 232.405 313.698 232.549 313.698H439.595C439.739 313.698 439.877 313.767 439.979 313.889C440.081 314.011 440.138 314.177 440.138 314.349C440.138 314.522 440.081 314.687 439.979 314.809C439.877 314.931 439.739 315 439.595 315Z" fill="#3F3D56"/>
<path opacity="0.2" d="M337.604 112.593L335.43 144.484L324.018 177.676L340.865 145.134L337.604 112.593Z" fill="black"/>
<path d="M321.35 190.036C321.973 189.437 322.479 188.682 322.831 187.823C323.184 186.965 323.376 186.024 323.392 185.068C323.408 184.111 323.25 183.162 322.927 182.287C322.604 181.412 322.124 180.632 321.522 180.003L328.793 158.437L318.901 160.829L313.514 180.942C312.698 182.223 312.303 183.818 312.404 185.424C312.504 187.03 313.093 188.537 314.059 189.658C315.025 190.779 316.301 191.436 317.644 191.506C318.988 191.576 320.307 191.053 321.35 190.036V190.036Z" fill="#FFB8B8"/>
<path d="M320.82 180.525L315.221 178.108C314.644 177.855 314.167 177.353 313.884 176.7C313.601 176.048 313.532 175.291 313.691 174.581L322.928 134.087L324.336 97.4894C324.379 96.3847 324.604 95.3012 324.999 94.3018C325.395 93.3024 325.952 92.4071 326.639 91.6679C327.325 90.9287 328.128 90.3603 329 89.996C329.871 89.6316 330.795 89.4784 331.717 89.5453C332.638 89.6122 333.54 89.8979 334.368 90.3858C335.197 90.8736 335.936 91.5539 336.543 92.387C337.151 93.2202 337.613 94.1896 337.905 95.2388C338.196 96.2881 338.311 97.3963 338.242 98.499L335.726 138.573L323.957 178.74C323.779 179.347 323.439 179.867 322.989 180.22C322.54 180.573 322.006 180.739 321.47 180.693C321.248 180.672 321.03 180.616 320.82 180.525Z" fill="#3F3D56"/>
<path d="M235.983 121.379H75.1288C74.9846 121.379 74.8464 121.311 74.7445 121.189C74.6426 121.066 74.5853 120.901 74.5853 120.728C74.5853 120.556 74.6426 120.39 74.7445 120.268C74.8464 120.146 74.9846 120.078 75.1288 120.078H235.983C236.127 120.078 236.266 120.146 236.367 120.268C236.469 120.39 236.527 120.556 236.527 120.728C236.527 120.901 236.469 121.066 236.367 121.189C236.266 121.311 236.127 121.379 235.983 121.379Z" fill="#3F3D56"/>
</g>
<defs>
<clipPath id="clip0">
<rect width="450" height="315" fill="white"/>
</clipPath>
</defs>
</svg>
