<svg width="450" height="315" viewBox="0 0 450 315" fill="none" xmlns="http://www.w3.org/2000/svg">
<g clip-path="url(#clip0)">
<path d="M445.786 205.129H134.072C132.955 205.128 131.884 204.684 131.094 203.895C130.304 203.106 129.859 202.036 129.858 200.92V8.10321H450V200.92C449.999 202.036 449.554 203.106 448.764 203.895C447.974 204.684 446.903 205.128 445.786 205.129Z" fill="#E6E6E6"/>
<path d="M436.646 193.079H143.212C142.083 193.078 141 192.629 140.202 191.832C139.403 191.034 138.954 189.953 138.952 188.825V30.033C138.954 28.905 139.403 27.8236 140.202 27.026C141 26.2284 142.083 25.7797 143.212 25.7784H436.646C437.775 25.7797 438.858 26.2283 439.657 27.0259C440.455 27.8236 440.904 28.905 440.906 30.033V188.825C440.904 189.953 440.455 191.034 439.657 191.832C438.858 192.629 437.775 193.078 436.646 193.079Z" fill="white"/>
<path d="M449.863 14.0574H129.722V4.20879C129.723 3.09293 130.167 2.02313 130.957 1.2341C131.747 0.445065 132.818 0.00124261 133.936 0H445.649C446.767 0.00124261 447.838 0.445065 448.628 1.2341C449.418 2.02313 449.862 3.09293 449.863 4.20879L449.863 14.0574Z" fill="#2C3E50"/>
<path d="M140.061 9.69493C141.451 9.69493 142.578 8.56953 142.578 7.18127C142.578 5.79301 141.451 4.6676 140.061 4.6676C138.671 4.6676 137.544 5.79301 137.544 7.18127C137.544 8.56953 138.671 9.69493 140.061 9.69493Z" fill="white"/>
<path d="M149.614 9.69493C151.004 9.69493 152.131 8.56953 152.131 7.18127C152.131 5.79301 151.004 4.6676 149.614 4.6676C148.224 4.6676 147.098 5.79301 147.098 7.18127C147.098 8.56953 148.224 9.69493 149.614 9.69493Z" fill="white"/>
<path d="M159.168 9.69493C160.558 9.69493 161.685 8.56953 161.685 7.18127C161.685 5.79301 160.558 4.6676 159.168 4.6676C157.778 4.6676 156.651 5.79301 156.651 7.18127C156.651 8.56953 157.778 9.69493 159.168 9.69493Z" fill="white"/>
<path d="M199.353 54.2524H169.11V67.6215H199.353V54.2524Z" fill="#E6E6E6"/>
<path d="M259.839 81.9808H229.596V95.3499H259.839V81.9808Z" fill="#E6E6E6"/>
<path d="M199.353 123.573H169.11V136.943H199.353V123.573Z" fill="#2C3E50"/>
<path d="M259.839 151.302H229.596V164.671H259.839V151.302Z" fill="#2C3E50"/>
<path d="M410.559 165.166H380.316V178.535H410.559V165.166Z" fill="#2C3E50"/>
<path d="M380.316 109.709H350.073V123.078H380.316V109.709Z" fill="#E6E6E6"/>
<path d="M320.325 109.709H259.839V123.078H320.325V109.709Z" fill="#2C3E50"/>
<path d="M320.325 39.8931H259.839V53.2621H320.325V39.8931Z" fill="#2C3E50"/>
<path d="M138.867 25.5337V193.39H441.297V25.5337L138.867 25.5337ZM440.306 39.4393H411.154V26.524H440.306V39.4393ZM260.434 136.777V123.862H319.73V136.777H260.434ZM319.73 137.768V150.683H260.434V137.768H319.73ZM319.73 82.146V95.061H260.434V82.146H319.73ZM260.434 81.1557V68.2404H319.73V81.1557H260.434ZM260.434 108.967V96.0513H319.73V108.967H260.434ZM319.73 109.957V122.872H260.434V109.957H319.73ZM259.443 95.061H230.291V82.146H259.443V95.061ZM259.443 96.0513V108.967H230.291V96.0513H259.443ZM259.443 109.957V122.872H230.291V109.957H259.443ZM259.443 123.862V136.777H230.291V123.862H259.443ZM320.722 123.862H349.874V136.777H320.722L320.722 123.862ZM320.722 122.872V109.957H349.874V122.872H320.722ZM320.722 108.967V96.0513H349.874V108.967H320.722ZM320.722 95.061V82.146H349.874V95.061H320.722ZM320.722 81.1557V68.2404H349.874V81.1557H320.722ZM320.722 67.2501V54.3349H349.874V67.2501H320.722ZM319.73 67.2501H260.434V54.3349H319.73L319.73 67.2501ZM259.443 67.2501H230.291V54.3349H259.443V67.2501ZM259.443 68.2404V81.1557H230.291V68.2404H259.443ZM229.299 81.1557H200.146V68.2404H229.299L229.299 81.1557ZM229.299 82.146V95.061H200.146V82.146H229.299ZM229.299 96.0513V108.967H200.146V96.0513H229.299ZM229.299 109.957V122.872H200.146V109.957H229.299ZM229.299 123.862V136.777H200.146V123.862H229.299ZM229.299 137.768V150.683H200.146V137.768H229.299ZM230.291 137.768H259.443V150.683H230.291V137.768ZM259.443 151.673V164.588H230.291V151.673H259.443ZM260.434 151.673H319.73V164.588H260.434V151.673ZM320.722 151.673H349.874V164.588H320.722L320.722 151.673ZM320.722 150.683V137.768H349.874V150.683H320.722ZM350.866 137.768H380.018V150.683H350.866L350.866 137.768ZM350.866 136.777V123.862H380.018V136.777H350.866ZM350.866 122.872V109.957H380.018V122.872H350.866ZM350.866 108.967V96.0513H380.018V108.967H350.866ZM350.866 95.061V82.146H380.018V95.061H350.866ZM350.866 81.1557V68.2404H380.018V81.1557H350.866ZM350.866 67.2501V54.3349H380.018V67.2501H350.866ZM350.866 53.3446V40.4296H380.018V53.3446H350.866ZM349.874 53.3446H320.722V40.4296H349.874L349.874 53.3446ZM319.73 53.3446H260.434V40.4296H319.73L319.73 53.3446ZM259.443 53.3446H230.291V40.4296H259.443V53.3446ZM229.299 53.3446H200.146V40.4296H229.299L229.299 53.3446ZM229.299 54.3349V67.2501H200.146V54.3349H229.299ZM199.155 67.2501H170.003V54.3349H199.155V67.2501ZM199.155 68.2404V81.1557H170.003V68.2404H199.155ZM199.155 82.146V95.061H170.003V82.146H199.155ZM199.155 96.0513V108.967H170.003V96.0513H199.155ZM199.155 109.957V122.872H170.003V109.957H199.155ZM199.155 123.862V136.777H170.003V123.862H199.155ZM199.155 137.768V150.683H170.003V137.768H199.155ZM199.155 151.673V164.588H170.003V151.673H199.155ZM200.147 151.673H229.299V164.588H200.146L200.147 151.673ZM229.299 165.579V178.494H200.146V165.579H229.299ZM230.291 165.579H259.443V178.494H230.291V165.579ZM260.434 165.579H319.73V178.494H260.434V165.579ZM320.722 165.579H349.874V178.494H320.722L320.722 165.579ZM350.866 165.579H380.018V178.494H350.866L350.866 165.579ZM350.866 164.588V151.673H380.018V164.588H350.866ZM381.01 151.673H410.162V164.588H381.01V151.673ZM381.01 150.683V137.768H410.162V150.683H381.01ZM381.01 136.777V123.862H410.162V136.777H381.01ZM381.01 122.872V109.957H410.162V122.872H381.01ZM381.01 108.967V96.0513H410.162V108.967H381.01ZM381.01 95.061V82.146H410.162V95.061H381.01ZM381.01 81.1557V68.2404H410.162V81.1557H381.01ZM381.01 67.2501V54.3349H410.162V67.2501H381.01ZM381.01 53.3446V40.4296H410.162V53.3446H381.01ZM381.01 39.4393V26.524H410.162V39.4393L381.01 39.4393ZM380.018 39.4393H350.866V26.524H380.018L380.018 39.4393ZM349.874 39.4393H320.722V26.524H349.874L349.874 39.4393ZM319.73 39.4393H260.434V26.524H319.73L319.73 39.4393ZM259.443 39.4393H230.291V26.524H259.443V39.4393ZM229.299 39.4393H200.146V26.524H229.299L229.299 39.4393ZM199.155 39.4393H170.003V26.524H199.155V39.4393ZM199.155 40.4296V53.3446H170.003V40.4296H199.155ZM169.011 53.3446H139.859V40.4296H169.011L169.011 53.3446ZM169.011 54.3349V67.2501H139.859V54.3349H169.011ZM169.011 68.2404V81.1557H139.859V68.2404H169.011ZM169.011 82.146V95.061H139.859V82.146H169.011ZM169.011 96.0513V108.967H139.859V96.0513H169.011ZM169.011 109.957V122.872H139.859V109.957H169.011ZM169.011 123.862V136.777H139.859V123.862H169.011ZM169.011 137.768V150.683H139.859V137.768H169.011ZM169.011 151.673V164.588H139.859V151.673H169.011ZM169.011 165.579V178.494H139.859V165.579H169.011ZM170.003 165.579H199.155V178.494H170.003L170.003 165.579ZM199.155 179.484V192.399H170.003V179.484H199.155ZM200.147 179.484H229.299V192.399H200.146L200.147 179.484ZM230.291 179.484H259.443V192.399H230.291L230.291 179.484ZM260.434 179.484H319.73V192.399H260.434L260.434 179.484ZM320.722 179.484H349.874V192.399H320.722V179.484ZM350.866 179.484H380.018V192.399H350.866L350.866 179.484ZM381.01 179.484H410.162V192.399H381.01V179.484ZM381.01 178.494V165.579H410.162V178.494H381.01ZM411.154 165.579H440.306V178.494H411.154V165.579ZM411.154 164.588V151.673H440.306V164.588H411.154ZM411.154 150.683V137.768H440.306V150.683H411.154ZM411.154 136.777V123.862H440.306V136.777H411.154ZM411.154 122.872V109.957H440.306V122.872H411.154ZM411.154 108.967V96.0513H440.306V108.967H411.154ZM411.154 95.061V82.146H440.306V95.061H411.154ZM411.154 81.1557V68.2404H440.306V81.1557H411.154ZM411.154 67.2501V54.3349H440.306V67.2501H411.154ZM411.154 53.3446V40.4296H440.306V53.3446H411.154ZM169.011 26.524V39.4393H139.859V26.524H169.011ZM139.859 179.484H169.011V192.399H139.859V179.484ZM411.154 192.399V179.484H440.306V192.399H411.154Z" fill="#E6E6E6"/>
<path d="M56.5414 116.482C56.5414 116.482 41.2417 112.961 32.8268 119.417C24.4119 125.872 43.5366 140.543 43.5366 140.543L56.5414 116.482Z" fill="#2F2E41"/>
<path d="M72.3636 200.684C72.057 199.877 71.9313 199.013 71.9953 198.153C72.0592 197.292 72.3113 196.457 72.7337 195.704C73.156 194.952 73.7385 194.301 74.44 193.797C75.1415 193.294 75.945 192.95 76.7939 192.79L79.8859 172.049L88.0111 179.322L83.8292 197.904C84.0033 199.346 83.6417 200.802 82.813 201.995C81.9843 203.189 80.7459 204.037 79.3326 204.38C77.9193 204.722 76.4293 204.535 75.1449 203.854C73.8604 203.173 72.8708 202.045 72.3636 200.684H72.3636Z" fill="#FFB8B8"/>
<path d="M40.3369 308.361L47.5249 307.885L49.1056 279.969L38.4972 280.672L40.3369 308.361Z" fill="#FFB8B8"/>
<path d="M61.5655 314.39H38.9252V305.654H52.8181C55.1381 305.654 57.363 306.575 59.0034 308.213C60.6439 309.851 61.5655 312.073 61.5655 314.39Z" fill="#2F2E41"/>
<path d="M52.7592 298.424L59.517 300.915L72.3553 276.067L62.381 272.391L52.7592 298.424Z" fill="#FFB8B8"/>
<path d="M70.2343 311.987L48.9948 304.157L52.0239 295.961L65.0572 300.766C67.2336 301.568 69.0018 303.201 69.9726 305.306C70.9435 307.41 71.0376 309.813 70.2343 311.987L70.2343 311.987Z" fill="#2F2E41"/>
<path d="M72.4092 191.179C72.4092 191.179 79.6887 195.094 77.4488 210.752L75.209 270.032L62.8347 297.055L52.1955 294.259L58.9703 272.268L50.011 233.681L48.8358 303.766L38.7566 305.444L24.2531 188.942L42.7316 180.554L72.4092 191.179Z" fill="#2F2E41"/>
<path d="M46.3904 109.83C54.3609 109.83 60.8223 103.377 60.8223 95.4164C60.8223 87.4561 54.3609 81.0031 46.3904 81.0031C38.42 81.0031 31.9586 87.4561 31.9586 95.4164C31.9586 103.377 38.42 109.83 46.3904 109.83Z" fill="#FFB8B8"/>
<path d="M54.7707 113.725L47.4912 125.469L36.8521 114.843L16.9623 128.748C16.2645 129.235 15.7525 129.943 15.5099 130.758C15.2673 131.573 15.3084 132.445 15.6266 133.234C18.6861 140.789 26.5208 163.123 24.2531 188.942C24.2531 188.942 39.3719 185.028 55.0506 189.501C70.7294 193.975 74.6491 192.298 74.6491 192.298C74.6491 192.298 70.7294 163.777 72.9692 157.625C74.8271 152.522 78.6114 135.491 79.848 129.832C79.9647 129.297 79.9062 128.739 79.6811 128.24C79.456 127.742 79.0763 127.328 78.598 127.062L54.7707 113.725Z" fill="#2C3E50"/>
<path d="M78.0212 127.129C78.6369 127.042 79.2636 127.181 79.784 127.521C80.3045 127.861 80.6831 128.379 80.8491 128.977L90.3278 163.162L88.088 183.854L77.4488 182.176L78.5688 167.636L70.7294 149.181L75.9044 129.025C76.03 128.535 76.2982 128.094 76.675 127.756C77.0518 127.419 77.5203 127.201 78.0212 127.129Z" fill="#2C3E50"/>
<path d="M35.2308 75.1835C36.1931 73.5521 37.5881 72.2181 39.2618 71.3287C40.9355 70.4393 42.8228 70.0292 44.7152 70.1437C46.6947 70.3916 48.6263 70.9316 50.447 71.7461L59.8814 75.4215C62.3227 76.3726 64.9964 77.5376 66.0557 79.9313C67.0389 82.1529 66.3054 84.7187 65.5628 87.0317L62.0331 98.0265C61.6421 95.5381 60.9711 93.1017 60.0328 90.7636C59.0075 88.4648 57.3859 86.3451 55.1439 85.1964C52.6933 83.9409 49.8049 83.9669 47.0538 84.0991C43.1576 84.2864 38.9214 84.7815 36.1531 87.5261C34.6835 89.0847 33.6873 91.028 33.2801 93.1299C32.8793 95.2206 32.6775 97.3445 32.6776 99.4732C31.0798 96.7303 29.734 93.8486 28.6564 90.8634C27.7701 88.6406 27.265 86.2845 27.1624 83.8941C27.0698 81.4833 27.8707 79.123 29.4119 77.2651C31.0057 75.486 33.6028 74.5256 35.8868 75.2299" fill="#2F2E41"/>
<path d="M27.2047 208.899C27.5112 208.093 27.6369 207.229 27.573 206.368C27.509 205.508 27.257 204.672 26.8346 203.92C26.4122 203.167 25.8298 202.516 25.1283 202.013C24.4268 201.509 23.6233 201.166 22.7744 201.006L19.6824 180.264L11.5572 187.538L15.7391 206.119C15.5649 207.561 15.9265 209.017 16.7553 210.211C17.584 211.404 18.8224 212.253 20.2356 212.595C21.6489 212.938 23.139 212.751 24.4234 212.07C25.7078 211.388 26.6974 210.26 27.2047 208.899Z" fill="#FFB8B8"/>
<path d="M17.1664 132.55C16.3184 132.692 15.5443 133.118 14.9724 133.759C14.4005 134.4 14.0653 135.217 14.0223 136.075L10.8141 200.157H22.5732L26.4929 166.044L21.5045 135.654C21.4243 135.165 21.2484 134.697 20.9869 134.277C20.7253 133.856 20.3832 133.491 19.9802 133.203C19.5773 132.915 19.1213 132.709 18.6384 132.597C18.1556 132.485 17.6554 132.469 17.1664 132.55Z" fill="#2C3E50"/>
<path d="M100.912 315H0V313.764H101.136L100.912 315Z" fill="#CCCCCC"/>
</g>
<defs>
<clipPath id="clip0">
<rect width="450" height="315" fill="white"/>
</clipPath>
</defs>
</svg>
